<svg width="18" height="18" fill="none" xmlns="http://www.w3.org/2000/svg"><path clip-rule="evenodd" d="M17 12.987V15.4a1.61 1.61 0 01-1.754 1.61 15.92 15.92 0 01-6.943-2.47 15.687 15.687 0 01-4.827-4.827 15.92 15.92 0 01-2.47-6.975A1.609 1.609 0 012.608.984h2.414A1.609 1.609 0 016.63 2.368c.102.772.29 1.53.563 2.26.221.588.08 1.251-.362 1.698L5.809 7.348a12.872 12.872 0 004.827 4.827l1.022-1.022a1.609 1.609 0 011.697-.362c.73.272 1.489.461 2.26.563A1.609 1.609 0 0117 12.987z" stroke="#9DA4BD" stroke-linecap="round" stroke-linejoin="round"/></svg>